<?xml version="1.0" encoding="utf-8"?>
<!-- Generator: Adobe Illustrator 15.1.0, SVG Export Plug-In . SVG Version: 6.00 Build 0)  -->
<!DOCTYPE svg PUBLIC "-//W3C//DTD SVG 1.1//EN" "http://www.w3.org/Graphics/SVG/1.1/DTD/svg11.dtd">
<svg version="1.1" id="Слой_1" xmlns="http://www.w3.org/2000/svg" xmlns:xlink="http://www.w3.org/1999/xlink" x="0px" y="0px"
	 width="21px" height="21px" viewBox="0 0 21 21" enable-background="new 0 0 21 21" xml:space="preserve">
<path opacity="0.3" fill="#FFFFFF" d="M18,0H3C1.35,0,0,1.35,0,3v15c0,1.65,1.35,3,3,3h15c1.65,0,3-1.35,3-3V3C21,1.35,19.65,0,18,0
	z M10.5,7c1.93,0,3.5,1.57,3.5,3.5c0,1.93-1.57,3.5-3.5,3.5C8.57,14,7,12.43,7,10.5C7,8.57,8.57,7,10.5,7z M18,18H3V9h1.181
	C4.063,9.491,4.002,9.995,4,10.5c0,3.59,2.91,6.5,6.5,6.5s6.5-2.91,6.5-6.5c-0.002-0.505-0.063-1.009-0.182-1.5H18V18z M18,7h-4V3h4
	V7z"/>
</svg>
