<?xml version="1.0" encoding="utf-8"?>
<!-- Generator: Adobe Illustrator 15.1.0, SVG Export Plug-In . SVG Version: 6.00 Build 0)  -->
<!DOCTYPE svg PUBLIC "-//W3C//DTD SVG 1.1//EN" "http://www.w3.org/Graphics/SVG/1.1/DTD/svg11.dtd">
<svg version="1.1" id="Слой_1" xmlns="http://www.w3.org/2000/svg" xmlns:xlink="http://www.w3.org/1999/xlink" x="0px" y="0px"
	 width="26px" height="15px" viewBox="0 0 26 15" enable-background="new 0 0 26 15" xml:space="preserve">
<path opacity="0.3" fill="#FFFFFF" d="M16.139,11.51c0.955-0.309,2.18,2.04,3.482,2.939c0.979,0.681,1.727,0.533,1.727,0.533
	l3.473-0.049c0,0,1.816-0.113,0.957-1.555c-0.07-0.12-0.502-1.068-2.584-3.021c-2.178-2.043-1.883-1.713,0.738-5.245
	c1.598-2.153,2.236-3.468,2.036-4.028c-0.192-0.539-1.364-0.399-1.364-0.399l-3.914,0.027c-0.381,0.001-0.703,0.119-0.851,0.515
	c-0.003,0.004-0.621,1.666-1.444,3.079c-1.742,2.989-2.437,3.148-2.725,2.961c-0.661-0.433-0.494-1.737-0.494-2.664
	c0-2.897,0.432-4.105-0.846-4.417c-0.428-0.104-0.739-0.172-1.828-0.182c-1.392-0.021-2.574,0-3.244,0.329
	c-0.445,0.223-0.786,0.712-0.579,0.74c0.26,0.035,0.843,0.16,1.155,0.586c0.401,0.552,0.389,1.789,0.389,1.789
	s0.229,3.411-0.54,3.834c-0.528,0.29-1.25-0.302-2.803-3.016C6.087,2.879,5.488,1.345,5.488,1.345S5.372,1.06,5.162,0.904
	c-0.25-0.185-0.6-0.244-0.6-0.244L0.848,0.684c0,0-0.558,0.016-0.763,0.262C-0.097,1.164,0.07,1.614,0.07,1.614
	s2.909,6.881,6.203,10.347c3.02,3.182,6.452,2.971,6.452,2.971h1.554c0,0,0.47-0.054,0.709-0.312c0.225-0.24,0.215-0.69,0.215-0.69
	S15.172,11.82,16.139,11.51z"/>
</svg>
